<svg fill="#000000" height="200px" width="200px" version="1.1" id="Capa_1" xmlns="http://www.w3.org/2000/svg" xmlns:xlink="http://www.w3.org/1999/xlink" viewBox="0 0 463.00 463.00" xml:space="preserve" stroke="#000000" stroke-width="7.4079999999999995"><g id="SVGRepo_bgCarrier" stroke-width="0"></g><g id="SVGRepo_tracerCarrier" stroke-linecap="round" stroke-linejoin="round"></g><g id="SVGRepo_iconCarrier"> <path d="M455.5,324H415v-56.5c0-43.837-35.664-79.5-79.5-79.5h-48c-4.687,0-8.5-3.813-8.5-8.5s3.813-8.5,8.5-8.5 c0.259,0,0.516-0.013,0.768-0.039C296.457,170.557,303,163.787,303,155.5v-16c0-8.547-6.953-15.5-15.5-15.5H255v-9h64.5 c6.904,0,13.431-3.019,17.907-8.281c4.474-5.26,6.397-12.226,5.277-19.11C340.865,76.43,330.53,68,318.644,68h-57.738l-2.644-7.932 C255.058,50.457,246.098,44,235.968,44h-8.936c-10.13,0-19.09,6.457-22.294,16.068L202.094,68h-57.738 c-11.886,0-22.221,8.43-24.04,19.608c-1.12,6.885,0.803,13.851,5.277,19.11c4.476,5.263,11.002,8.281,17.907,8.281H208v9h-32.5 c-8.547,0-15.5,6.953-15.5,15.5v16c0,8.287,6.543,15.057,14.732,15.461c0.253,0.026,0.509,0.039,0.768,0.039 c4.687,0,8.5,3.813,8.5,8.5s-3.813,8.5-8.5,8.5h-48C83.664,188,48,223.663,48,267.5V324H7.5c-4.142,0-7.5,3.357-7.5,7.5v80 c0,4.143,3.358,7.5,7.5,7.5h56c43.836,0,79.5-35.663,79.5-79.5V283h177v56.5c0,43.837,35.664,79.5,79.5,79.5h56 c4.142,0,7.5-3.357,7.5-7.5v-80C463,327.357,459.642,324,455.5,324z M159,203h145v8.5c0,9.098-7.402,16.5-16.5,16.5h-112 c-9.098,0-16.5-7.402-16.5-16.5V203z M137.02,97.001c-1.643-1.932-2.317-4.411-1.898-6.984c0.64-3.935,4.696-7.017,9.234-7.017 H207.5c3.229,0,6.094-2.065,7.115-5.128l4.353-13.06c1.159-3.477,4.4-5.813,8.064-5.813h8.936c3.665,0,6.905,2.336,8.064,5.813 l4.353,13.06C249.406,80.935,252.271,83,255.5,83h63.144c4.538,0,8.594,3.082,9.234,7.017c0.419,2.573-0.255,5.053-1.898,6.984 c-1.621,1.906-3.982,2.999-6.48,2.999h-176C141.002,100,138.641,98.907,137.02,97.001z M223,115h17v9h-17V115z M175,139.5 c0-0.275,0.224-0.5,0.5-0.5h112c0.276,0,0.5,0.225,0.5,0.5v16c0,0.275-0.224,0.5-0.5,0.5h-112c-0.276,0-0.5-0.225-0.5-0.5V139.5z M197.403,171h68.195c-1.027,2.638-1.597,5.503-1.597,8.5s0.57,5.862,1.597,8.5h-68.195c1.027-2.638,1.597-5.503,1.597-8.5 S198.43,173.638,197.403,171z M144,203v8.5c0,17.369,14.131,31.5,31.5,31.5h112c17.369,0,31.5-14.131,31.5-31.5V203h16.5 c15.086,0,28.966,5.22,39.964,13.929L324.393,268H138.607l-51.071-51.071C98.534,208.22,112.414,203,127.5,203H144z M15,404v-65 h37.393l51.071,51.071C92.466,398.78,78.586,404,63.5,404H15z M114.071,379.464L63,328.393V267.5 c0-15.085,5.22-28.967,13.929-39.964L128,278.607V339.5C128,354.585,122.78,368.467,114.071,379.464z M335,339.5v-60.893 l51.071-51.071C394.78,238.533,400,252.415,400,267.5v60.893l-51.071,51.071C340.22,368.467,335,354.585,335,339.5z M448,404h-48.5 c-15.086,0-28.966-5.22-39.964-13.929L410.607,339H448V404z"></path> </g></svg>